%
M48
M72
T01C0.0276
T02C0.0320
T03C0.0400
%
T01
X12515Y1350
X15515Y2600
X13515Y6350
X16515Y8350
X18515Y8350
X18515Y10850
X19265Y12350
X16515Y13350
X16515Y15350
X18765Y18850
X18265Y23100
X22265Y23100
X24015Y20600
X16515Y10850
X8515Y16350
X5015Y20350
X12265Y20600
X12515Y23100
T02
X5515Y2850
X6515Y2850
X7765Y6350
X7765Y10350
X14765Y10350
X14765Y9350
X14765Y8350
X14765Y7350
X14765Y6350
X14765Y11350
X14765Y12350
X14765Y13350
X14765Y14350
X14765Y15350
X14765Y16350
X14765Y17350
X14765Y18350
X14765Y19350
X20765Y19350
X20765Y18350
X20765Y17350
X20765Y16350
X20765Y15350
X20765Y14350
X20765Y13350
X20765Y12350
X20765Y11350
X20765Y10350
X20765Y9350
X20765Y8350
X20765Y7350
X20765Y6350
X23765Y12350
X25765Y15350
X23765Y16350
X23765Y18850
X22765Y18850
X25765Y19350
T03
X25265Y21600
X24265Y21600
X23265Y21600
X22265Y21600
X21265Y21600
X20265Y21600
X19265Y21600
X18265Y21600
X17265Y21600
X16265Y21600
X13265Y21600
X12265Y21600
X11265Y21600
X10265Y21600
X9265Y21600
X8265Y21600
X7265Y21600
X6265Y21600
X7265Y18350
X7265Y17350
X7265Y16350
X7765Y13850
X8765Y13850
X9765Y13850
X9765Y16350
X9765Y17350
X9765Y18350
X12265Y18350
X12265Y17350
X12265Y16350
X6765Y13850
X14015Y4600
X15015Y4600
X15015Y3600
X14015Y3600
X16015Y3600
X17015Y3600
X17015Y4600
X16015Y4600
X18015Y4600
X19015Y4600
X20015Y4600
X20015Y3600
X19015Y3600
X18015Y3600
X21015Y3600
X22015Y3600
X22015Y4600
X21015Y4600
X23015Y4600
X23015Y3600
X23265Y6350
X23265Y7350
X23265Y8350
X11265Y2850
X10265Y2850
X9265Y2850
M30
